<?xml version="1.0" encoding="UTF-8"?>
<svg xmlns="http://www.w3.org/2000/svg" xmlns:xlink="http://www.w3.org/1999/xlink" version="1.1" width="512" height="512" x="0" y="0" viewBox="0 0 2048 2048" style="enable-background:new 0 0 512 512" xml:space="preserve" fill-rule="evenodd" class="">
  <g>
    <rect width="2048" height="2048" fill="#c19a6b" rx="384" opacity="1" data-original="#e64a19" class=""/>
    <g fill="#fffffe">
      <path d="M1624 1467.62V821.215c0-10.311-8.36-18.67-18.67-18.67h-385.874c-10.311 0-18.67 8.359-18.67 18.67v646.404c0 10.313 8.359 18.673 18.67 18.673h385.874c10.311 0 18.67-8.36 18.67-18.672zm-341.151-579.435h94.5c10.311 0 18.671 8.36 18.671 18.67v94.501c0 10.311-8.36 18.67-18.67 18.67h-94.501c-10.311 0-18.67-8.359-18.67-18.67v-94.5c0-10.311 8.359-18.671 18.67-18.671zm145.916 208.983c0-10.311 8.36-18.67 18.67-18.67h94.501c10.311 0 18.67 8.359 18.67 18.67v94.5c0 10.311-8.359 18.671-18.67 18.671h-94.5c-10.311 0-18.671-8.36-18.671-18.67zm18.67 171.64h94.501c10.311 0 18.67 8.36 18.67 18.67v94.501c0 10.311-8.359 18.67-18.67 18.67h-94.5c-10.311 0-18.671-8.359-18.671-18.67v-94.5c0-10.311 8.36-18.671 18.67-18.671zm-164.586-190.311h94.5c10.311 0 18.67 8.36 18.67 18.67v94.501c0 10.311-8.359 18.67-18.67 18.67h-94.5c-10.311 0-18.671-8.359-18.671-18.67v-94.5c0-10.311 8.36-18.671 18.67-18.671zm0 190.311h94.5c10.311 0 18.67 8.36 18.67 18.67v94.501c0 10.311-8.359 18.67-18.67 18.67h-94.5c-10.311 0-18.671-8.359-18.671-18.67v-94.5c0-10.311 8.36-18.671 18.67-18.671zm164.587-380.624h94.5c10.311 0 18.67 8.36 18.67 18.67v94.501c0 10.311-8.359 18.67-18.67 18.67h-94.5c-10.311 0-18.671-8.359-18.671-18.67v-94.5c0-10.311 8.36-18.671 18.67-18.671zM424 1467.62V821.215c0-10.311 8.36-18.67 18.67-18.67h385.874c10.312 0 18.672 8.359 18.672 18.67v646.404c0 10.313-8.36 18.673-18.671 18.673H442.67c-10.311 0-18.671-8.36-18.671-18.672zm341.151-579.435h-94.5c-10.311 0-18.671 8.36-18.671 18.67v94.501c0 10.311 8.36 18.67 18.67 18.67h94.501c10.311 0 18.67-8.359 18.67-18.67v-94.5c0-10.311-8.359-18.671-18.67-18.671zm-145.916 208.983c0-10.311-8.36-18.67-18.67-18.67h-94.501c-10.311 0-18.67 8.359-18.67 18.67v94.5c0 10.311 8.359 18.671 18.67 18.671h94.5c10.311 0 18.671-8.36 18.671-18.67zm-18.67 171.64h-94.501c-10.311 0-18.67 8.36-18.67 18.67v94.501c0 10.311 8.359 18.67 18.67 18.67h94.5c10.311 0 18.671-8.359 18.671-18.67v-94.5c0-10.311-8.36-18.671-18.67-18.671zm164.586-190.311h-94.5c-10.311 0-18.67 8.36-18.67 18.67v94.501c0 10.311 8.359 18.67 18.67 18.67h94.5c10.311 0 18.671-8.359 18.671-18.67v-94.5c0-10.311-8.36-18.671-18.67-18.671zm0 190.311h-94.5c-10.311 0-18.67 8.36-18.67 18.67v94.501c0 10.311 8.359 18.67 18.67 18.67h94.5c10.311 0 18.671-8.359 18.671-18.67v-94.5c0-10.311-8.36-18.671-18.67-18.671zM600.564 888.184h-94.5c-10.311 0-18.67 8.36-18.67 18.67v94.501c0 10.311 8.359 18.67 18.67 18.67h94.5c10.311 0 18.671-8.359 18.671-18.67v-94.5c0-10.311-8.36-18.671-18.67-18.671z" fill="#fffffe" opacity="1" data-original="#fffffe" class=""/>
      <path d="M1235.61 802.548V580.377c0-10.312-8.36-18.672-18.67-18.672H831.063c-10.31 0-18.67 8.36-18.67 18.672v169.671l-.002 37.343v661.562l.001 18.67c0 10.313 8.36 18.673 18.671 18.673h385.875c10.311 0 18.671-8.36 18.671-18.672V802.548zm-195.236 78.39c0-10.312 8.36-18.672 18.67-18.672h94.501c10.311 0 18.67 8.36 18.67 18.672v94.5c0 10.312-8.359 18.672-18.67 18.672h-94.5c-10.311 0-18.671-8.36-18.671-18.672zm18.67 172.952h94.501c10.311 0 18.67 8.36 18.67 18.672v94.499c0 10.312-8.359 18.672-18.67 18.672h-94.5c-10.311 0-18.671-8.36-18.671-18.672v-94.5c0-10.311 8.36-18.671 18.67-18.671zm0 191.625h94.501c10.311 0 18.67 8.36 18.67 18.67v94.5c0 10.312-8.359 18.672-18.67 18.672h-94.5c-10.311 0-18.671-8.36-18.671-18.671v-94.5c0-10.311 8.36-18.671 18.67-18.671zm0-574.872h94.501c10.311 0 18.67 8.36 18.67 18.672v94.499c0 10.312-8.359 18.672-18.67 18.672h-94.5c-10.311 0-18.671-8.36-18.671-18.672v-94.5c0-10.311 8.36-18.671 18.67-18.671zm-70.086 0c10.311 0 18.671 8.36 18.671 18.672v94.499c0 10.312-8.36 18.672-18.67 18.672h-94.5c-10.312 0-18.672-8.36-18.672-18.672v-94.5c0-10.311 8.36-18.671 18.671-18.671zm-94.5 191.623h94.5c10.311 0 18.671 8.36 18.671 18.672v94.5c0 10.312-8.36 18.672-18.67 18.672h-94.5c-10.312 0-18.672-8.36-18.672-18.672v-94.5c0-10.312 8.36-18.672 18.671-18.672zm0 191.625h94.5c10.311 0 18.671 8.36 18.671 18.672v94.499c0 10.312-8.36 18.672-18.67 18.672h-94.5c-10.312 0-18.672-8.36-18.672-18.672v-94.5c0-10.311 8.36-18.671 18.671-18.671zm0 191.625h94.5c10.311 0 18.671 8.36 18.671 18.67v94.5c0 10.312-8.36 18.672-18.67 18.672h-94.5c-10.312 0-18.672-8.36-18.672-18.671v-94.5c0-10.311 8.36-18.671 18.671-18.671z" fill="#fffffe" opacity="1" data-original="#fffffe" class=""/>
    </g>
  </g>
</svg>
